ffmpeg started on 2016-12-08 at 07:24:55
Report written to "Output/x264/results/ffmpeg/crowd_run_2160p50slower13000k.log"
Command line:
Tools/ffmpeg/ffmpeg -benchmark -y -i Input/y4m/crowd_run_2160p50.y4m -c:v libx264 -preset slower -b:v 13000k -an Output/x264/encoded/crowd_run_2160p50slower13000k.mkv
ffmpeg version N-82227-gdb23fde Copyright (c) 2000-2016 the FFmpeg developers
  built with gcc 5.4.0 (Ubuntu 5.4.0-6ubuntu1~16.04.2) 20160609
  configuration: --prefix=/home/jaroslav/ffmpeg_build --pkg-config-flags=--static --extra-cflags=-I/home/jaroslav/ffmpeg_build/include --extra-ldflags=-L/home/jaroslav/ffmpeg_build/lib --bindir=/home/jaroslav/bin --enable-gpl --enable-libass --enable-libfdk-aac --enable-libfreetype --enable-libmp3lame --enable-libopus --enable-libtheora --enable-libvorbis --enable-libvpx --enable-libx264 --enable-libx265 --enable-nvenc --enable-libmfx --enable-libxvid --enable-libgsm --enable-libopencore-amrnb --enable-version3 --enable-nonfree
  libavutil      55. 35.100 / 55. 35.100
  libavcodec     57. 66.101 / 57. 66.101
  libavformat    57. 57.100 / 57. 57.100
  libavdevice    57.  2.100 / 57.  2.100
  libavfilter     6. 66.100 /  6. 66.100
  libswscale      4.  3.100 /  4.  3.100
  libswresample   2.  4.100 /  2.  4.100
  libpostproc    54.  2.100 / 54.  2.100
Input #0, yuv4mpegpipe, from 'Input/y4m/crowd_run_2160p50.y4m':
  Duration: 00:00:10.00, start: 0.000000, bitrate: 4976642 kb/s
    Stream #0:0: Video: rawvideo (I420 / 0x30323449), yuv420p(progressive), 3840x2160, SAR 1:1 DAR 16:9, 50 fps, 50 tbr, 50 tbn, 50 tbc
[libx264 @ 0x40591c0] using SAR=1/1
[libx264 @ 0x40591c0] DPB size (8 frames, 259200 mbs) > level limit (5 frames, 184320 mbs)
[libx264 @ 0x40591c0] using cpu capabilities: MMX2 SSE2Fast SSSE3 SSE4.2 AVX FMA3 AVX2 LZCNT BMI2
[libx264 @ 0x40591c0] profile High, level 5.2
[libx264 @ 0x40591c0] 264 - core 148 - H.264/MPEG-4 AVC codec - Copyleft 2003-2016 - http://www.videolan.org/x264.html - options: cabac=1 ref=8 deblock=1:0:0 analyse=0x3:0x133 me=umh subme=9 psy=1 psy_rd=1.00:0.00 mixed_ref=1 me_range=16 chroma_me=1 trellis=2 8x8dct=1 cqm=0 deadzone=21,11 fast_pskip=1 chroma_qp_offset=-2 threads=6 lookahead_threads=1 sliced_threads=0 nr=0 decimate=1 interlaced=0 bluray_compat=0 constrained_intra=0 bframes=3 b_pyramid=2 b_adapt=2 b_bias=0 direct=3 weightb=1 open_gop=0 weightp=2 keyint=250 keyint_min=25 scenecut=40 intra_refresh=0 rc_lookahead=60 rc=abr mbtree=1 bitrate=13000 ratetol=1.0 qcomp=0.60 qpmin=0 qpmax=69 qpstep=4 ip_ratio=1.40 aq=1:1.00
Output #0, matroska, to 'Output/x264/encoded/crowd_run_2160p50slower13000k.mkv':
  Metadata:
    encoder         : Lavf57.57.100
    Stream #0:0: Video: h264 (libx264) (H264 / 0x34363248), yuv420p, 3840x2160 [SAR 1:1 DAR 16:9], q=-1--1, 13000 kb/s, 50 fps, 1k tbn, 50 tbc
    Metadata:
      encoder         : Lavc57.66.101 libx264
    Side data:
      cpb: bitrate max/min/avg: 0/0/13000000 buffer size: 0 vbv_delay: -1
Stream mapping:
  Stream #0:0 -> #0:0 (rawvideo (native) -> h264 (libx264))
Press [q] to stop, [?] for help
frame=   19 fps=0.0 q=0.0 size=       0kB time=00:00:00.00 bitrate=N/A speed=   0x    frame=   25 fps= 24 q=0.0 size=       0kB time=00:00:00.00 bitrate=N/A speed=   0x    frame=   38 fps= 24 q=0.0 size=       0kB time=00:00:00.00 bitrate=N/A speed=   0x    frame=   48 fps= 23 q=0.0 size=       0kB time=00:00:00.00 bitrate=N/A speed=   0x    frame=   53 fps= 20 q=0.0 size=       0kB time=00:00:00.00 bitrate=N/A speed=   0x    frame=   57 fps= 17 q=0.0 size=       0kB time=00:00:00.00 bitrate=N/A speed=   0x    frame=   64 fps= 15 q=0.0 size=       0kB time=00:00:00.00 bitrate=N/A speed=   0x    frame=   67 fps=9.6 q=0.0 size=       0kB time=00:00:00.00 bitrate=N/A speed=   0x    frame=   72 fps=8.5 q=32.0 size=       1kB time=-00:00:00.01 bitrate=N/A speed=N/A    frame=   73 fps=7.8 q=40.0 size=       1kB time=00:00:00.00 bitrate=5888.0kbits/s speed=0.000107x    frame=   75 fps=7.5 q=38.0 size=       1kB time=00:00:00.04 bitrate= 143.6kbits/s speed=0.00408x    frame=   77 fps=7.0 q=44.0 size=       1kB time=00:00:00.08 bitrate=  72.7kbits/s speed=0.00737x    frame=   80 fps=6.8 q=49.0 size=       1kB time=00:00:00.14 bitrate=  41.8kbits/s speed=0.012x    frame=   83 fps=6.5 q=49.0 size=       1kB time=00:00:00.20 bitrate=  29.3kbits/s speed=0.0157x    frame=   86 fps=6.3 q=49.0 size=       1kB time=00:00:00.26 bitrate=  22.6kbits/s speed=0.019x    frame=   89 fps=6.3 q=48.0 size=       1kB time=00:00:00.32 bitrate=  18.3kbits/s speed=0.0225x    frame=   90 fps=5.9 q=48.0 size=       1kB time=00:00:00.34 bitrate=  17.3kbits/s speed=0.0223x    frame=   93 fps=5.8 q=47.0 size=       1kB time=00:00:00.40 bitrate=  14.7kbits/s speed=0.0249x    frame=   97 fps=5.8 q=47.0 size=       1kB time=00:00:00.48 bitrate=  12.2kbits/s speed=0.0289x    frame=   98 fps=5.5 q=47.0 size=       1kB time=00:00:00.50 bitrate=  11.8kbits/s speed=0.0281x    frame=  101 fps=5.5 q=47.0 size=       1kB time=00:00:00.56 bitrate=  10.5kbits/s speed=0.0305x    frame=  103 fps=5.4 q=46.0 size=       1kB time=00:00:00.60 bitrate=   9.8kbits/s speed=0.0313x    frame=  105 fps=5.3 q=46.0 size=       1kB time=00:00:00.64 bitrate=   9.2kbits/s speed=0.0325x    frame=  107 fps=5.3 q=46.0 size=       1kB time=00:00:00.68 bitrate=   8.6kbits/s speed=0.0334x    frame=  109 fps=5.2 q=46.0 size=       1kB time=00:00:00.72 bitrate=   8.2kbits/s speed=0.0343x    frame=  110 fps=5.1 q=46.0 size=       1kB time=00:00:00.74 bitrate=   7.9kbits/s speed=0.0343x    frame=  114 fps=5.0 q=46.0 size=       1kB time=00:00:00.82 bitrate=   7.2kbits/s speed=0.0362x    frame=  117 fps=5.0 q=46.0 size=       1kB time=00:00:00.88 bitrate=   6.7kbits/s speed=0.0379x    frame=  118 fps=5.0 q=46.0 size=       1kB time=00:00:00.90 bitrate=   6.5kbits/s speed=0.0379x    frame=  120 fps=4.9 q=46.0 size=       1kB time=00:00:00.94 bitrate=   6.3kbits/s speed=0.0382x    frame=  122 fps=4.8 q=46.0 size=       1kB time=00:00:00.98 bitrate=   6.0kbits/s speed=0.0386x    frame=  126 fps=4.7 q=46.0 size=       1kB time=00:00:01.06 bitrate=   5.5kbits/s speed=0.0399x    frame=  127 fps=4.7 q=45.0 size=       1kB time=00:00:01.08 bitrate=   5.4kbits/s speed=0.0398x    frame=  131 fps=4.6 q=45.0 size=       1kB time=00:00:01.16 bitrate=   5.1kbits/s speed=0.041x    frame=  134 fps=4.6 q=45.0 size=       1kB time=00:00:01.22 bitrate=   4.8kbits/s speed=0.0416x    frame=  136 fps=4.5 q=45.0 size=       1kB time=00:00:01.26 bitrate=   4.7kbits/s speed=0.0418x    frame=  139 fps=4.5 q=45.0 size=       1kB time=00:00:01.32 bitrate=   4.5kbits/s speed=0.043x    frame=  141 fps=4.5 q=45.0 size=       1kB time=00:00:01.36 bitrate=   4.3kbits/s speed=0.0434x    frame=  142 fps=4.4 q=45.0 size=       1kB time=00:00:01.38 bitrate=   4.3kbits/s speed=0.0429x    frame=  144 fps=4.4 q=45.0 size=       1kB time=00:00:01.42 bitrate=   4.1kbits/s speed=0.0434x    frame=  147 fps=4.4 q=45.0 size=       1kB time=00:00:01.48 bitrate=   4.0kbits/s speed=0.0441x    frame=  149 fps=4.3 q=45.0 size=       1kB time=00:00:01.52 bitrate=   3.9kbits/s speed=0.0444x    frame=  151 fps=4.3 q=45.0 size=       1kB time=00:00:01.56 bitrate=   3.8kbits/s speed=0.0443x    frame=  154 fps=4.3 q=44.0 size=       1kB time=00:00:01.62 bitrate=   3.6kbits/s speed=0.0448x    frame=  158 fps=4.2 q=44.0 size=       1kB time=00:00:01.70 bitrate=   3.5kbits/s speed=0.0454x    frame=  160 fps=4.2 q=44.0 size=       1kB time=00:00:01.74 bitrate=   3.4kbits/s speed=0.0457x    frame=  162 fps=4.2 q=44.0 size=       1kB time=00:00:01.78 bitrate=   3.3kbits/s speed=0.0461x    frame=  164 fps=4.2 q=44.0 size=       1kB time=00:00:01.82 bitrate=   3.2kbits/s speed=0.0464x    frame=  166 fps=4.1 q=44.0 size=       1kB time=00:00:01.86 bitrate=   3.2kbits/s speed=0.0461x    frame=  168 fps=4.1 q=44.0 size=       1kB time=00:00:01.90 bitrate=   3.1kbits/s speed=0.0462x    frame=  172 fps=4.1 q=44.0 size=       1kB time=00:00:01.98 bitrate=   3.0kbits/s speed=0.0473x    frame=  174 fps=4.0 q=44.0 size=       1kB time=00:00:02.02 bitrate=   2.9kbits/s speed=0.047x    frame=  176 fps=4.0 q=44.0 size=       1kB time=00:00:02.06 bitrate=   2.9kbits/s speed=0.0473x    frame=  178 fps=4.0 q=44.0 size=       1kB time=00:00:02.10 bitrate=   2.8kbits/s speed=0.0475x    frame=  181 fps=4.0 q=44.0 size=       1kB time=00:00:02.16 bitrate=   2.7kbits/s speed=0.048x    frame=  183 fps=4.0 q=44.0 size=       1kB time=00:00:02.20 bitrate=   2.7kbits/s speed=0.0479x    frame=  185 fps=4.0 q=44.0 size=       1kB time=00:00:02.24 bitrate=   2.6kbits/s speed=0.0481x    frame=  188 fps=3.9 q=44.0 size=       1kB time=00:00:02.30 bitrate=   2.6kbits/s speed=0.0482x    frame=  191 fps=3.9 q=44.0 size=       1kB time=00:00:02.36 bitrate=   2.5kbits/s speed=0.0484x    frame=  193 fps=3.9 q=44.0 size=       1kB time=00:00:02.40 bitrate=   2.5kbits/s speed=0.0487x    frame=  195 fps=3.9 q=44.0 size=       1kB time=00:00:02.44 bitrate=   2.4kbits/s speed=0.0488x    frame=  196 fps=3.9 q=44.0 size=       1kB time=00:00:02.46 bitrate=   2.4kbits/s speed=0.0486x    frame=  199 fps=3.9 q=44.0 size=       1kB time=00:00:02.52 bitrate=   2.3kbits/s speed=0.0491x    frame=  202 fps=3.8 q=44.0 size=       1kB time=00:00:02.58 bitrate=   2.3kbits/s speed=0.0491x    frame=  203 fps=3.8 q=44.0 size=       1kB time=00:00:02.60 bitrate=   2.3kbits/s speed=0.0489x    frame=  205 fps=3.8 q=44.0 size=       1kB time=00:00:02.64 bitrate=   2.2kbits/s speed=0.0491x    frame=  208 fps=3.8 q=44.0 size=       1kB time=00:00:02.70 bitrate=   2.2kbits/s speed=0.0495x    frame=  210 fps=3.8 q=44.0 size=       1kB time=00:00:02.74 bitrate=   2.1kbits/s speed=0.0493x    frame=  213 fps=3.8 q=44.0 size=       1kB time=00:00:02.80 bitrate=   2.1kbits/s speed=0.0497x    frame=  215 fps=3.8 q=43.0 size=       1kB time=00:00:02.84 bitrate=   2.1kbits/s speed=0.05x    frame=  217 fps=3.7 q=44.0 size=       1kB time=00:00:02.88 bitrate=   2.0kbits/s speed=0.0495x    frame=  220 fps=3.7 q=43.0 size=       1kB time=00:00:02.94 bitrate=   2.0kbits/s speed=0.0501x    frame=  222 fps=3.7 q=43.0 size=    5139kB time=00:00:02.98 bitrate=14121.4kbits/s speed=0.0501x    frame=  224 fps=3.7 q=43.0 size=    5139kB time=00:00:03.02 bitrate=13934.5kbits/s speed=0.0502x    frame=  226 fps=3.7 q=43.0 size=    5139kB time=00:00:03.06 bitrate=13752.4kbits/s speed=0.0503x    frame=  228 fps=3.7 q=43.0 size=    5139kB time=00:00:03.10 bitrate=13575.0kbits/s speed=0.0502x    frame=  229 fps=3.7 q=43.0 size=    5139kB time=00:00:03.12 bitrate=13488.0kbits/s speed=0.0499x    frame=  232 fps=3.7 q=43.0 size=    5139kB time=00:00:03.18 bitrate=13233.6kbits/s speed=0.0505x    frame=  235 fps=3.7 q=43.0 size=    5139kB time=00:00:03.24 bitrate=12988.6kbits/s speed=0.0508x    frame=  236 fps=3.6 q=43.0 size=    5139kB time=00:00:03.26 bitrate=12908.9kbits/s speed=0.0503x    frame=  238 fps=3.6 q=43.0 size=    5139kB time=00:00:03.30 bitrate=12752.5kbits/s speed=0.0504x    frame=  242 fps=3.6 q=43.0 size=    5139kB time=00:00:03.38 bitrate=12450.7kbits/s speed=0.0509x    frame=  244 fps=3.6 q=43.0 size=    5139kB time=00:00:03.42 bitrate=12305.2kbits/s speed=0.0506x    frame=  246 fps=3.6 q=43.0 size=    5139kB time=00:00:03.46 bitrate=12163.0kbits/s speed=0.0506x    frame=  248 fps=3.6 q=43.0 size=    5139kB time=00:00:03.50 bitrate=12024.0kbits/s speed=0.0507x    frame=  251 fps=3.6 q=43.0 size=    5139kB time=00:00:03.56 bitrate=11821.4kbits/s speed=0.0508x    frame=  252 fps=3.6 q=43.0 size=    5139kB time=00:00:03.58 bitrate=11755.4kbits/s speed=0.0507x    frame=  255 fps=3.6 q=43.0 size=    5139kB time=00:00:03.64 bitrate=11561.7kbits/s speed=0.0511x    frame=  257 fps=3.6 q=43.0 size=    5139kB time=00:00:03.68 bitrate=11436.0kbits/s speed=0.0511x    frame=  259 fps=3.6 q=43.0 size=    5139kB time=00:00:03.72 bitrate=11313.1kbits/s speed=0.0511x    frame=  261 fps=3.6 q=43.0 size=    5139kB time=00:00:03.76 bitrate=11192.8kbits/s speed=0.0513x    frame=  262 fps=3.5 q=43.0 size=    5139kB time=00:00:03.78 bitrate=11133.6kbits/s speed=0.051x    frame=  264 fps=3.5 q=43.0 size=    5139kB time=00:00:03.82 bitrate=11017.0kbits/s speed=0.0511x    frame=  267 fps=3.5 q=43.0 size=    5139kB time=00:00:03.88 bitrate=10846.7kbits/s speed=0.0514x    frame=  269 fps=3.5 q=43.0 size=    5139kB time=00:00:03.92 bitrate=10736.0kbits/s speed=0.0514x    frame=  270 fps=3.5 q=43.0 size=    5139kB time=00:00:03.94 bitrate=10681.5kbits/s speed=0.0511x    frame=  272 fps=3.5 q=43.0 size=    5139kB time=00:00:03.98 bitrate=10574.2kbits/s speed=0.0511x    frame=  275 fps=3.5 q=43.0 size=    5139kB time=00:00:04.04 bitrate=10417.2kbits/s speed=0.0514x    frame=  277 fps=3.5 q=43.0 size=    5139kB time=00:00:04.08 bitrate=10315.1kbits/s speed=0.0513x    frame=  279 fps=3.5 q=43.0 size=    5139kB time=00:00:04.12 bitrate=10215.0kbits/s speed=0.0514x    frame=  281 fps=3.5 q=43.0 size=    5139kB time=00:00:04.16 bitrate=10116.8kbits/s speed=0.0513x    frame=  282 fps=3.5 q=43.0 size=    5139kB time=00:00:04.18 bitrate=10068.4kbits/s speed=0.0512x    frame=  286 fps=3.5 q=43.0 size=    5139kB time=00:00:04.26 bitrate=9879.4kbits/s speed=0.0517x    frame=  288 fps=3.4 q=43.0 size=    5139kB time=00:00:04.30 bitrate=9787.5kbits/s speed=0.0515x    frame=  289 fps=3.4 q=43.0 size=    5139kB time=00:00:04.32 bitrate=9742.2kbits/s speed=0.0513x    frame=  291 fps=3.4 q=43.0 size=    5139kB time=00:00:04.36 bitrate=9652.8kbits/s speed=0.0514x    frame=  294 fps=3.4 q=43.0 size=    5139kB time=00:00:04.42 bitrate=9521.8kbits/s speed=0.0516x    frame=  296 fps=3.4 q=43.0 size=    5139kB time=00:00:04.46 bitrate=9436.4kbits/s speed=0.0517x    frame=  297 fps=3.4 q=43.0 size=    5139kB time=00:00:04.48 bitrate=9394.3kbits/s speed=0.0516x    frame=  300 fps=3.4 q=43.0 size=    5139kB time=00:00:04.54 bitrate=9270.2kbits/s speed=0.0516x    frame=  302 fps=3.4 q=43.0 size=    5139kB time=00:00:04.58 bitrate=9189.3kbits/s speed=0.0517x    frame=  304 fps=3.4 q=43.0 size=    5139kB time=00:00:04.62 bitrate=9109.7kbits/s speed=0.0516x    frame=  306 fps=3.4 q=43.0 size=    5139kB time=00:00:04.66 bitrate=9031.5kbits/s speed=0.0516x    frame=  308 fps=3.4 q=43.0 size=    5139kB time=00:00:04.70 bitrate=8954.7kbits/s speed=0.0517x    frame=  310 fps=3.4 q=43.0 size=    5139kB time=00:00:04.74 bitrate=8879.1kbits/s speed=0.0517x    frame=  312 fps=3.4 q=43.0 size=    5139kB time=00:00:04.78 bitrate=8804.8kbits/s speed=0.0516x    frame=  314 fps=3.4 q=43.0 size=    5139kB time=00:00:04.82 bitrate=8731.8kbits/s speed=0.0517x    frame=  316 fps=3.4 q=40.0 size=    5139kB time=00:00:04.86 bitrate=8659.9kbits/s speed=0.0518x    frame=  319 fps=3.4 q=43.0 size=    5139kB time=00:00:04.92 bitrate=8554.4kbits/s speed=0.052x    frame=  320 fps=3.4 q=43.0 size=    5139kB time=00:00:04.94 bitrate=8519.7kbits/s speed=0.0519x    frame=  326 fps=3.4 q=43.0 size=    8079kB time=00:00:05.06 bitrate=13076.7kbits/s speed=0.0527x    frame=  329 fps=3.4 q=43.0 size=    8079kB time=00:00:05.12 bitrate=12923.5kbits/s speed=0.0527x    frame=  331 fps=3.4 q=43.0 size=    8079kB time=00:00:05.16 bitrate=12823.3kbits/s speed=0.0528x    frame=  333 fps=3.4 q=43.0 size=    8079kB time=00:00:05.20 bitrate=12724.7kbits/s speed=0.0529x    frame=  335 fps=3.4 q=43.0 size=    8079kB time=00:00:05.24 bitrate=12627.6kbits/s speed=0.0529x    frame=  337 fps=3.4 q=43.0 size=    8079kB time=00:00:05.28 bitrate=12531.9kbits/s speed=0.0529x    frame=  339 fps=3.4 q=43.0 size=    8079kB time=00:00:05.32 bitrate=12437.7kbits/s speed=0.053x    frame=  340 fps=3.4 q=43.0 size=    8079kB time=00:00:05.34 bitrate=12391.1kbits/s speed=0.0529x    frame=  343 fps=3.4 q=43.0 size=    8079kB time=00:00:05.40 bitrate=12253.5kbits/s speed=0.0532x    frame=  344 fps=3.4 q=43.0 size=    8079kB time=00:00:05.42 bitrate=12208.3kbits/s speed=0.0528x    frame=  346 fps=3.4 q=43.0 size=    8079kB time=00:00:05.46 bitrate=12118.9kbits/s speed=0.0529x    frame=  349 fps=3.4 q=43.0 size=    8079kB time=00:00:05.52 bitrate=11987.2kbits/s speed=0.053x    frame=  352 fps=3.3 q=43.0 size=    8079kB time=00:00:05.58 bitrate=11858.3kbits/s speed=0.0528x    frame=  355 fps=3.3 q=43.0 size=    8079kB time=00:00:05.64 bitrate=11732.2kbits/s speed=0.0531x    frame=  356 fps=3.3 q=43.0 size=    8079kB time=00:00:05.66 bitrate=11690.7kbits/s speed=0.053x    frame=  358 fps=3.3 q=43.0 size=    8079kB time=00:00:05.70 bitrate=11608.7kbits/s speed=0.0531x    frame=  360 fps=3.3 q=43.0 size=    8079kB time=00:00:05.74 bitrate=11527.8kbits/s speed=0.0529x    frame=  362 fps=3.3 q=43.0 size=    8079kB time=00:00:05.78 bitrate=11448.0kbits/s speed=0.0529x    frame=  365 fps=3.3 q=43.0 size=    8079kB time=00:00:05.84 bitrate=11330.4kbits/s speed=0.0532x    frame=  367 fps=3.3 q=43.0 size=    8079kB time=00:00:05.88 bitrate=11253.4kbits/s speed=0.0532x    frame=  368 fps=3.3 q=43.0 size=    8079kB time=00:00:05.90 bitrate=11215.2kbits/s speed=0.0529x    frame=  370 fps=3.3 q=43.0 size=    8079kB time=00:00:05.94 bitrate=11139.7kbits/s speed=0.053x    frame=  373 fps=3.3 q=43.0 size=    8079kB time=00:00:06.00 bitrate=11028.3kbits/s speed=0.0532x    frame=  375 fps=3.3 q=43.0 size=    8079kB time=00:00:06.04 bitrate=10955.3kbits/s speed=0.0532x    frame=  376 fps=3.3 q=43.0 size=    8079kB time=00:00:06.06 bitrate=10919.2kbits/s speed=0.0531x    frame=  378 fps=3.3 q=43.0 size=    8079kB time=00:00:06.10 bitrate=10847.6kbits/s speed=0.0531x    frame=  380 fps=3.3 q=43.0 size=    8079kB time=00:00:06.14 bitrate=10776.9kbits/s speed=0.0531x    frame=  384 fps=3.3 q=43.0 size=    8079kB time=00:00:06.22 bitrate=10638.3kbits/s speed=0.0533x    frame=  385 fps=3.3 q=43.0 size=    8079kB time=00:00:06.24 bitrate=10604.2kbits/s speed=0.0532x    frame=  387 fps=3.3 q=43.0 size=    8079kB time=00:00:06.28 bitrate=10536.7kbits/s speed=0.0532x    frame=  390 fps=3.3 q=43.0 size=    8079kB time=00:00:06.34 bitrate=10437.0kbits/s speed=0.0533x    frame=  392 fps=3.3 q=43.0 size=    8079kB time=00:00:06.38 bitrate=10371.6kbits/s speed=0.0534x    frame=  393 fps=3.3 q=43.0 size=    8079kB time=00:00:06.40 bitrate=10339.2kbits/s speed=0.0532x    frame=  395 fps=3.3 q=43.0 size=    8079kB time=00:00:06.44 bitrate=10275.0kbits/s speed=0.0532x    frame=  398 fps=3.3 q=43.0 size=    8079kB time=00:00:06.50 bitrate=10180.1kbits/s speed=0.0534x    frame=  399 fps=3.3 q=43.0 size=    8079kB time=00:00:06.52 bitrate=10148.9kbits/s speed=0.0533x    frame=  402 fps=3.3 q=43.0 size=    8079kB time=00:00:06.58 bitrate=10056.4kbits/s speed=0.0533x    frame=  404 fps=3.3 q=43.0 size=    8079kB time=00:00:06.62 bitrate=9995.6kbits/s speed=0.0533x    frame=  406 fps=3.2 q=43.0 size=    8079kB time=00:00:06.66 bitrate=9935.6kbits/s speed=0.0533x    frame=  409 fps=3.3 q=43.0 size=    8079kB time=00:00:06.72 bitrate=9846.9kbits/s speed=0.0535x    frame=  410 fps=3.2 q=43.0 size=    8079kB time=00:00:06.74 bitrate=9817.7kbits/s speed=0.0533x    frame=  412 fps=3.2 q=43.0 size=    8079kB time=00:00:06.78 bitrate=9759.8kbits/s speed=0.0533x    frame=  414 fps=3.2 q=43.0 size=    8079kB time=00:00:06.82 bitrate=9702.5kbits/s speed=0.0533x    frame=  415 fps=3.2 q=43.0 size=    8079kB time=00:00:06.84 bitrate=9674.2kbits/s speed=0.0532x    frame=  418 fps=3.2 q=43.0 size=    8079kB time=00:00:06.90 bitrate=9590.1kbits/s speed=0.0535x    frame=  420 fps=3.2 q=43.0 size=    8079kB time=00:00:06.94 bitrate=9534.8kbits/s speed=0.0535x    frame=  421 fps=3.2 q=43.0 size=    8079kB time=00:00:06.96 bitrate=9507.4kbits/s speed=0.0534x    frame=  423 fps=3.2 q=43.0 size=    8079kB time=00:00:07.00 bitrate=9453.1kbits/s speed=0.0533x    frame=  427 fps=3.2 q=43.0 size=    8079kB time=00:00:07.08 bitrate=9346.3kbits/s speed=0.0534x    frame=  428 fps=3.2 q=43.0 size=    8079kB time=00:00:07.10 bitrate=9320.0kbits/s speed=0.0533x    frame=  431 fps=3.2 q=43.0 size=    8079kB time=00:00:07.16 bitrate=9241.9kbits/s speed=0.0534x    frame=  432 fps=3.2 q=43.0 size=    8079kB time=00:00:07.18 bitrate=9216.1kbits/s speed=0.0534x    frame=  435 fps=3.2 q=43.0 size=    8079kB time=00:00:07.24 bitrate=9139.8kbits/s speed=0.0534x    frame=  437 fps=3.2 q=43.0 size=    8079kB time=00:00:07.28 bitrate=9089.6kbits/s speed=0.0534x    frame=  439 fps=3.2 q=43.0 size=    8079kB time=00:00:07.32 bitrate=9039.9kbits/s speed=0.0535x    frame=  442 fps=3.2 q=43.0 size=    8079kB time=00:00:07.38 bitrate=8966.4kbits/s speed=0.0534x    frame=  443 fps=3.2 q=43.0 size=    8079kB time=00:00:07.40 bitrate=8942.2kbits/s speed=0.0533x    frame=  446 fps=3.2 q=43.0 size=    8079kB time=00:00:07.46 bitrate=8870.3kbits/s speed=0.0535x    frame=  448 fps=3.2 q=43.0 size=    8079kB time=00:00:07.50 bitrate=8823.0kbits/s speed=0.0536x    frame=  450 fps=3.2 q=43.0 size=    8079kB time=00:00:07.54 bitrate=8776.2kbits/s speed=0.0535x    frame=  451 fps=3.2 q=43.0 size=    8079kB time=00:00:07.56 bitrate=8753.0kbits/s speed=0.0534x    frame=  453 fps=3.2 q=43.0 size=    8079kB time=00:00:07.60 bitrate=8706.9kbits/s speed=0.0535x    frame=  455 fps=3.2 q=43.0 size=    8079kB time=00:00:07.64 bitrate=8661.3kbits/s speed=0.0535x    frame=  458 fps=3.2 q=43.0 size=    8079kB time=00:00:07.70 bitrate=8593.8kbits/s speed=0.0535x    frame=  460 fps=3.2 q=43.0 size=    8079kB time=00:00:07.74 bitrate=8549.4kbits/s speed=0.0535x    frame=  462 fps=3.2 q=43.0 size=    8079kB time=00:00:07.78 bitrate=8505.5kbits/s speed=0.0535x    frame=  464 fps=3.2 q=43.0 size=    8079kB time=00:00:07.82 bitrate=8462.0kbits/s speed=0.0535x    frame=  466 fps=3.2 q=43.0 size=    8079kB time=00:00:07.86 bitrate=8418.9kbits/s speed=0.0534x    frame=  468 fps=3.2 q=43.0 size=    8079kB time=00:00:07.90 bitrate=8376.3kbits/s speed=0.0535x    frame=  470 fps=3.2 q=43.0 size=    8079kB time=00:00:07.94 bitrate=8334.1kbits/s speed=0.0535x    frame=  471 fps=3.2 q=43.0 size=    8079kB time=00:00:07.96 bitrate=8313.2kbits/s speed=0.0535x    frame=  474 fps=3.2 q=43.0 size=    8079kB time=00:00:08.02 bitrate=8251.0kbits/s speed=0.0535x    frame=  475 fps=3.2 q=43.0 size=    8079kB time=00:00:08.04 bitrate=8230.5kbits/s speed=0.0535x    frame=  478 fps=3.2 q=43.0 size=    8079kB time=00:00:08.10 bitrate=8169.5kbits/s speed=0.0536x    frame=  479 fps=3.2 q=43.0 size=    8079kB time=00:00:08.12 bitrate=8149.4kbits/s speed=0.0535x    frame=  482 fps=3.2 q=43.0 size=    8079kB time=00:00:08.18 bitrate=8089.6kbits/s speed=0.0536x    frame=  484 fps=3.2 q=43.0 size=    8079kB time=00:00:08.22 bitrate=8050.2kbits/s speed=0.0536x    frame=  485 fps=3.2 q=43.0 size=   13237kB time=00:00:08.24 bitrate=13158.3kbits/s speed=0.0536x    frame=  487 fps=3.2 q=43.0 size=   13237kB time=00:00:08.28 bitrate=13094.7kbits/s speed=0.0536x    frame=  489 fps=3.2 q=43.0 size=   13237kB time=00:00:08.32 bitrate=13031.8kbits/s speed=0.0536x    frame=  491 fps=3.2 q=43.0 size=   13237kB time=00:00:08.36 bitrate=12969.4kbits/s speed=0.0537x    frame=  492 fps=3.1 q=43.0 size=   13237kB time=00:00:08.38 bitrate=12938.5kbits/s speed=0.0536x    frame=  494 fps=3.1 q=43.0 size=   13237kB time=00:00:08.42 bitrate=12877.0kbits/s speed=0.0536x    frame=  496 fps=3.1 q=43.0 size=   13237kB time=00:00:08.46 bitrate=12816.2kbits/s speed=0.0536x    frame=  499 fps=3.1 q=43.0 size=   13237kB time=00:00:08.52 bitrate=12725.9kbits/s speed=0.0538x    frame=  500 fps=3.1 q=43.0 size=   13237kB time=00:00:08.54 bitrate=12696.1kbits/s speed=0.0536x    frame=  500 fps=2.7 q=-1.0 Lsize=   15766kB time=00:00:09.94 bitrate=12992.4kbits/s speed=0.0543x    
video:15762kB audio:0kB subtitle:0kB other streams:0kB global headers:0kB muxing overhead: 0.028965%
bench: utime=689.920s
bench: maxrss=2521420kB
[libx264 @ 0x40591c0] frame I:2     Avg QP:32.99  size:493324
[libx264 @ 0x40591c0] frame P:134   Avg QP:42.28  size: 61621
[libx264 @ 0x40591c0] frame B:364   Avg QP:45.35  size: 18943
[libx264 @ 0x40591c0] consecutive B-frames:  0.4%  2.8% 14.4% 82.4%
[libx264 @ 0x40591c0] mb I  I16..4: 16.0% 76.7%  7.4%
[libx264 @ 0x40591c0] mb P  I16..4:  1.6%  4.4%  0.0%  P16..4: 37.6%  4.6%  5.7%  0.0%  0.0%    skip:46.0%
[libx264 @ 0x40591c0] mb B  I16..4:  0.0%  0.1%  0.0%  B16..8: 44.1%  1.7%  0.1%  direct: 0.3%  skip:53.6%  L0:43.4% L1:56.1% BI: 0.5%
[libx264 @ 0x40591c0] final ratefactor: 34.97
[libx264 @ 0x40591c0] 8x8 transform intra:73.7% inter:86.4%
[libx264 @ 0x40591c0] direct mvs  spatial:99.2% temporal:0.8%
[libx264 @ 0x40591c0] coded y,uvDC,uvAC intra: 38.6% 51.7% 18.5% inter: 3.3% 4.9% 0.1%
[libx264 @ 0x40591c0] i16 v,h,dc,p: 36% 22%  7% 36%
[libx264 @ 0x40591c0] i8 v,h,dc,ddl,ddr,vr,hd,vl,hu:  7%  4%  5% 12% 16% 16% 15% 13% 11%
[libx264 @ 0x40591c0] i4 v,h,dc,ddl,ddr,vr,hd,vl,hu:  7%  4%  2% 12% 16% 16% 16% 13% 15%
[libx264 @ 0x40591c0] i8c dc,h,v,p: 48% 17% 18% 18%
[libx264 @ 0x40591c0] Weighted P-Frames: Y:0.7% UV:0.0%
[libx264 @ 0x40591c0] ref P L0: 62.7%  7.1% 13.8%  4.1%  3.7%  3.1%  3.3%  2.2%  0.0%
[libx264 @ 0x40591c0] ref B L0: 94.3%  3.3%  1.3%  0.4%  0.3%  0.2%  0.2%
[libx264 @ 0x40591c0] ref B L1: 98.9%  1.1%
[libx264 @ 0x40591c0] kb/s:12911.40
